STARTFONT 2.1
FONT -Misc-TheBirdTags-Medium-R-Normal--12-87-100-100-C-60-ISO10646-1
SIZE 8 100 100
FONTBOUNDINGBOX 17 12 0 -2
COMMENT "Generated by fontforge, http://fontforge.sourceforge.net"
STARTPROPERTIES 22
FONTNAME_REGISTRY ""
FOUNDRY "Misc"
FAMILY_NAME "TheBirdTags"
WEIGHT_NAME "Medium"
SLANT "R"
SETWIDTH_NAME "Normal"
ADD_STYLE_NAME ""
PIXEL_SIZE 12
POINT_SIZE 87
RESOLUTION_X 100
RESOLUTION_Y 100
SPACING "C"
AVERAGE_WIDTH 60
CHARSET_REGISTRY "ISO10646"
CHARSET_ENCODING "1"
COPYRIGHT "install gentoo"
CAP_HEIGHT 7
X_HEIGHT 5
FONT_VERSION "1.10"
WEIGHT 10
RESOLUTION 138
QUAD_WIDTH 6
ENDPROPERTIES
CHARS 266
STARTCHAR uni0000
ENCODING 0
SWIDTH 392 0
DWIDTH 6 0
BBX 4 6 1 1
BITMAP
F0
90
90
90
90
F0
ENDCHAR
STARTCHAR space
ENCODING 32
SWIDTH 392 0
DWIDTH 6 0
BBX 1 1 5 -2
BITMAP
00
ENDCHAR
STARTCHAR exclam
ENCODING 33
SWIDTH 392 0
DWIDTH 6 0
BBX 1 8 2 1
BITMAP
80
80
80
80
80
00
00
80
ENDCHAR
STARTCHAR quotedbl
ENCODING 34
SWIDTH 392 0
DWIDTH 6 0
BBX 3 3 1 6
BITMAP
A0
A0
A0
ENDCHAR
STARTCHAR numbersign
ENCODING 35
SWIDTH 392 0
DWIDTH 6 0
BBX 5 8 0 1
BITMAP
50
50
F8
50
50
F8
50
50
ENDCHAR
STARTCHAR dollar
ENCODING 36
SWIDTH 392 0
DWIDTH 6 0
BBX 4 10 1 0
BITMAP
20
20
70
80
40
20
10
E0
40
40
ENDCHAR
STARTCHAR percent
ENCODING 37
SWIDTH 392 0
DWIDTH 6 0
BBX 5 9 0 0
BITMAP
40
A0
A8
50
20
50
A8
28
10
ENDCHAR
STARTCHAR ampersand
ENCODING 38
SWIDTH 392 0
DWIDTH 6 0
BBX 5 8 0 1
BITMAP
40
A0
A0
40
A8
90
90
68
ENDCHAR
STARTCHAR quotesingle
ENCODING 39
SWIDTH 392 0
DWIDTH 6 0
BBX 1 3 2 6
BITMAP
80
80
80
ENDCHAR
STARTCHAR parenleft
ENCODING 40
SWIDTH 392 0
DWIDTH 6 0
BBX 3 10 1 -1
BITMAP
20
40
40
80
80
80
80
40
40
20
ENDCHAR
STARTCHAR parenright
ENCODING 41
SWIDTH 392 0
DWIDTH 6 0
BBX 3 10 1 -1
BITMAP
80
40
40
20
20
20
20
40
40
80
ENDCHAR
STARTCHAR asterisk
ENCODING 42
SWIDTH 392 0
DWIDTH 6 0
BBX 5 5 0 2
BITMAP
20
A8
70
A8
20
ENDCHAR
STARTCHAR plus
ENCODING 43
SWIDTH 392 0
DWIDTH 6 0
BBX 5 5 0 2
BITMAP
20
20
F8
20
20
ENDCHAR
STARTCHAR comma
ENCODING 44
SWIDTH 392 0
DWIDTH 6 0
BBX 2 4 1 -1
BITMAP
C0
C0
40
80
ENDCHAR
STARTCHAR hyphen
ENCODING 45
SWIDTH 392 0
DWIDTH 6 0
BBX 5 1 0 4
BITMAP
F8
ENDCHAR
STARTCHAR period
ENCODING 46
SWIDTH 392 0
DWIDTH 6 0
BBX 2 2 1 1
BITMAP
C0
C0
ENDCHAR
STARTCHAR slash
ENCODING 47
SWIDTH 392 0
DWIDTH 6 0
BBX 4 8 0 0
BITMAP
10
10
20
20
40
40
80
80
ENDCHAR
STARTCHAR zero
ENCODING 48
SWIDTH 392 0
DWIDTH 6 0
BBX 5 7 0 1
BITMAP
70
88
98
A8
C8
88
70
ENDCHAR
STARTCHAR one
ENCODING 49
SWIDTH 392 0
DWIDTH 6 0
BBX 5 7 0 1
BITMAP
20
60
A0
20
20
20
F8
ENDCHAR
STARTCHAR two
ENCODING 50
SWIDTH 392 0
DWIDTH 6 0
BBX 5 7 0 1
BITMAP
70
88
08
10
20
40
F8
ENDCHAR
STARTCHAR three
ENCODING 51
SWIDTH 392 0
DWIDTH 6 0
BBX 5 7 0 1
BITMAP
F8
08
10
30
08
88
70
ENDCHAR
STARTCHAR four
ENCODING 52
SWIDTH 392 0
DWIDTH 6 0
BBX 5 7 0 1
BITMAP
10
30
50
90
F8
10
10
ENDCHAR
STARTCHAR five
ENCODING 53
SWIDTH 392 0
DWIDTH 6 0
BBX 5 7 0 1
BITMAP
F8
80
F0
08
08
88
70
ENDCHAR
STARTCHAR six
ENCODING 54
SWIDTH 392 0
DWIDTH 6 0
BBX 5 7 0 1
BITMAP
30
40
80
F0
88
88
70
ENDCHAR
STARTCHAR seven
ENCODING 55
SWIDTH 392 0
DWIDTH 6 0
BBX 5 7 0 1
BITMAP
F8
08
10
10
20
20
20
ENDCHAR
STARTCHAR eight
ENCODING 56
SWIDTH 392 0
DWIDTH 6 0
BBX 5 7 0 1
BITMAP
70
88
88
70
88
88
70
ENDCHAR
STARTCHAR nine
ENCODING 57
SWIDTH 392 0
DWIDTH 6 0
BBX 5 7 0 1
BITMAP
70
88
88
78
08
10
60
ENDCHAR
STARTCHAR colon
ENCODING 58
SWIDTH 392 0
DWIDTH 6 0
BBX 2 6 1 1
BITMAP
C0
C0
00
00
C0
C0
ENDCHAR
STARTCHAR semicolon
ENCODING 59
SWIDTH 392 0
DWIDTH 6 0
BBX 2 8 1 -1
BITMAP
C0
C0
00
00
C0
C0
40
80
ENDCHAR
STARTCHAR less
ENCODING 60
SWIDTH 392 0
DWIDTH 6 0
BBX 4 7 1 1
BITMAP
10
20
40
80
40
20
10
ENDCHAR
STARTCHAR equal
ENCODING 61
SWIDTH 392 0
DWIDTH 6 0
BBX 5 3 0 3
BITMAP
F8
00
F8
ENDCHAR
STARTCHAR greater
ENCODING 62
SWIDTH 392 0
DWIDTH 6 0
BBX 4 7 0 1
BITMAP
80
40
20
10
20
40
80
ENDCHAR
STARTCHAR question
ENCODING 63
SWIDTH 392 0
DWIDTH 6 0
BBX 5 8 0 1
BITMAP
70
88
08
10
20
00
00
20
ENDCHAR
STARTCHAR at
ENCODING 64
SWIDTH 392 0
DWIDTH 6 0
BBX 5 9 0 0
BITMAP
70
88
88
98
A8
B8
80
80
78
ENDCHAR
STARTCHAR A
ENCODING 65
SWIDTH 392 0
DWIDTH 6 0
BBX 5 7 0 1
BITMAP
20
20
50
50
70
88
88
ENDCHAR
STARTCHAR B
ENCODING 66
SWIDTH 392 0
DWIDTH 6 0
BBX 5 7 0 1
BITMAP
F0
88
88
F0
88
88
F0
ENDCHAR
STARTCHAR C
ENCODING 67
SWIDTH 392 0
DWIDTH 6 0
BBX 5 7 0 1
BITMAP
38
40
80
80
80
40
38
ENDCHAR
STARTCHAR D
ENCODING 68
SWIDTH 392 0
DWIDTH 6 0
BBX 5 7 0 1
BITMAP
F0
88
88
88
88
90
E0
ENDCHAR
STARTCHAR E
ENCODING 69
SWIDTH 392 0
DWIDTH 6 0
BBX 5 7 0 1
BITMAP
F8
80
80
F0
80
80
F8
ENDCHAR
STARTCHAR F
ENCODING 70
SWIDTH 392 0
DWIDTH 6 0
BBX 5 7 0 1
BITMAP
F8
80
80
F0
80
80
80
ENDCHAR
STARTCHAR G
ENCODING 71
SWIDTH 392 0
DWIDTH 6 0
BBX 5 7 0 1
BITMAP
38
40
80
98
88
48
38
ENDCHAR
STARTCHAR H
ENCODING 72
SWIDTH 392 0
DWIDTH 6 0
BBX 5 7 0 1
BITMAP
88
88
88
F8
88
88
88
ENDCHAR
STARTCHAR I
ENCODING 73
SWIDTH 392 0
DWIDTH 6 0
BBX 3 7 1 1
BITMAP
E0
40
40
40
40
40
E0
ENDCHAR
STARTCHAR J
ENCODING 74
SWIDTH 392 0
DWIDTH 6 0
BBX 5 7 0 1
BITMAP
08
08
08
08
88
88
70
ENDCHAR
STARTCHAR K
ENCODING 75
SWIDTH 392 0
DWIDTH 6 0
BBX 5 7 0 1
BITMAP
88
90
A0
C0
A0
90
88
ENDCHAR
STARTCHAR L
ENCODING 76
SWIDTH 392 0
DWIDTH 6 0
BBX 5 7 0 1
BITMAP
80
80
80
80
80
80
F8
ENDCHAR
STARTCHAR M
ENCODING 77
SWIDTH 392 0
DWIDTH 6 0
BBX 5 7 0 1
BITMAP
88
D8
A8
A8
88
88
88
ENDCHAR
STARTCHAR N
ENCODING 78
SWIDTH 392 0
DWIDTH 6 0
BBX 5 7 0 1
BITMAP
88
C8
A8
98
88
88
88
ENDCHAR
STARTCHAR O
ENCODING 79
SWIDTH 392 0
DWIDTH 6 0
BBX 5 7 0 1
BITMAP
70
88
88
88
88
88
70
ENDCHAR
STARTCHAR P
ENCODING 80
SWIDTH 392 0
DWIDTH 6 0
BBX 5 7 0 1
BITMAP
F0
88
88
F0
80
80
80
ENDCHAR
STARTCHAR Q
ENCODING 81
SWIDTH 392 0
DWIDTH 6 0
BBX 5 9 0 -1
BITMAP
70
88
88
88
88
88
70
10
08
ENDCHAR
STARTCHAR R
ENCODING 82
SWIDTH 392 0
DWIDTH 6 0
BBX 5 7 0 1
BITMAP
F0
88
88
F0
A0
90
88
ENDCHAR
STARTCHAR S
ENCODING 83
SWIDTH 392 0
DWIDTH 6 0
BBX 4 7 0 1
BITMAP
70
80
80
60
10
10
E0
ENDCHAR
STARTCHAR T
ENCODING 84
SWIDTH 392 0
DWIDTH 6 0
BBX 5 7 0 1
BITMAP
F8
20
20
20
20
20
20
ENDCHAR
STARTCHAR U
ENCODING 85
SWIDTH 392 0
DWIDTH 6 0
BBX 5 7 0 1
BITMAP
88
88
88
88
88
88
70
ENDCHAR
STARTCHAR V
ENCODING 86
SWIDTH 392 0
DWIDTH 6 0
BBX 5 7 0 1
BITMAP
88
88
88
50
50
20
20
ENDCHAR
STARTCHAR W
ENCODING 87
SWIDTH 392 0
DWIDTH 6 0
BBX 5 7 0 1
BITMAP
88
88
88
A8
A8
A8
D8
ENDCHAR
STARTCHAR X
ENCODING 88
SWIDTH 392 0
DWIDTH 6 0
BBX 5 7 0 1
BITMAP
88
88
50
20
50
88
88
ENDCHAR
STARTCHAR Y
ENCODING 89
SWIDTH 392 0
DWIDTH 6 0
BBX 5 7 0 1
BITMAP
88
88
50
20
20
20
20
ENDCHAR
STARTCHAR Z
ENCODING 90
SWIDTH 392 0
DWIDTH 6 0
BBX 5 7 0 1
BITMAP
F8
10
20
20
40
40
F8
ENDCHAR
STARTCHAR bracketleft
ENCODING 91
SWIDTH 392 0
DWIDTH 6 0
BBX 3 10 1 -1
BITMAP
E0
80
80
80
80
80
80
80
80
E0
ENDCHAR
STARTCHAR backslash
ENCODING 92
SWIDTH 392 0
DWIDTH 6 0
BBX 4 8 0 0
BITMAP
80
80
40
40
20
20
10
10
ENDCHAR
STARTCHAR bracketright
ENCODING 93
SWIDTH 392 0
DWIDTH 6 0
BBX 3 10 1 -1
BITMAP
E0
20
20
20
20
20
20
20
20
E0
ENDCHAR
STARTCHAR asciicircum
ENCODING 94
SWIDTH 392 0
DWIDTH 6 0
BBX 5 3 0 5
BITMAP
20
50
88
ENDCHAR
STARTCHAR underscore
ENCODING 95
SWIDTH 392 0
DWIDTH 6 0
BBX 6 1 0 -1
BITMAP
FC
ENDCHAR
STARTCHAR grave
ENCODING 96
SWIDTH 392 0
DWIDTH 6 0
BBX 3 3 1 6
BITMAP
80
40
20
ENDCHAR
STARTCHAR a
ENCODING 97
SWIDTH 392 0
DWIDTH 6 0
BBX 5 5 0 1
BITMAP
70
08
78
88
78
ENDCHAR
STARTCHAR b
ENCODING 98
SWIDTH 392 0
DWIDTH 6 0
BBX 5 7 0 1
BITMAP
80
80
F0
88
88
88
F0
ENDCHAR
STARTCHAR c
ENCODING 99
SWIDTH 392 0
DWIDTH 6 0
BBX 4 5 0 1
BITMAP
70
80
80
80
70
ENDCHAR
STARTCHAR d
ENCODING 100
SWIDTH 392 0
DWIDTH 6 0
BBX 5 7 0 1
BITMAP
08
08
78
88
88
88
78
ENDCHAR
STARTCHAR e
ENCODING 101
SWIDTH 392 0
DWIDTH 6 0
BBX 5 5 0 1
BITMAP
70
88
F8
80
78
ENDCHAR
STARTCHAR f
ENCODING 102
SWIDTH 392 0
DWIDTH 6 0
BBX 4 7 0 1
BITMAP
30
40
F0
40
40
40
40
ENDCHAR
STARTCHAR g
ENCODING 103
SWIDTH 392 0
DWIDTH 6 0
BBX 5 7 0 -1
BITMAP
78
88
88
88
78
08
70
ENDCHAR
STARTCHAR h
ENCODING 104
SWIDTH 392 0
DWIDTH 6 0
BBX 5 7 0 1
BITMAP
80
80
F0
88
88
88
88
ENDCHAR
STARTCHAR i
ENCODING 105
SWIDTH 392 0
DWIDTH 6 0
BBX 3 7 1 1
BITMAP
40
00
C0
40
40
40
E0
ENDCHAR
STARTCHAR j
ENCODING 106
SWIDTH 392 0
DWIDTH 6 0
BBX 3 9 1 -1
BITMAP
20
00
60
20
20
20
20
20
C0
ENDCHAR
STARTCHAR k
ENCODING 107
SWIDTH 392 0
DWIDTH 6 0
BBX 5 7 0 1
BITMAP
80
80
90
A0
E0
90
88
ENDCHAR
STARTCHAR l
ENCODING 108
SWIDTH 392 0
DWIDTH 6 0
BBX 3 7 1 1
BITMAP
C0
40
40
40
40
40
E0
ENDCHAR
STARTCHAR m
ENCODING 109
SWIDTH 392 0
DWIDTH 6 0
BBX 5 5 0 1
BITMAP
D8
A8
A8
A8
A8
ENDCHAR
STARTCHAR n
ENCODING 110
SWIDTH 392 0
DWIDTH 6 0
BBX 5 5 0 1
BITMAP
F0
88
88
88
88
ENDCHAR
STARTCHAR o
ENCODING 111
SWIDTH 392 0
DWIDTH 6 0
BBX 5 5 0 1
BITMAP
70
88
88
88
70
ENDCHAR
STARTCHAR p
ENCODING 112
SWIDTH 392 0
DWIDTH 6 0
BBX 5 7 0 -1
BITMAP
F0
88
88
88
F0
80
80
ENDCHAR
STARTCHAR q
ENCODING 113
SWIDTH 392 0
DWIDTH 6 0
BBX 5 7 0 -1
BITMAP
78
88
88
88
78
08
08
ENDCHAR
STARTCHAR r
ENCODING 114
SWIDTH 392 0
DWIDTH 6 0
BBX 4 5 0 1
BITMAP
B0
C0
80
80
80
ENDCHAR
STARTCHAR s
ENCODING 115
SWIDTH 392 0
DWIDTH 6 0
BBX 4 5 0 1
BITMAP
70
80
60
10
E0
ENDCHAR
STARTCHAR t
ENCODING 116
SWIDTH 392 0
DWIDTH 6 0
BBX 4 6 0 1
BITMAP
40
F0
40
40
40
30
ENDCHAR
STARTCHAR u
ENCODING 117
SWIDTH 392 0
DWIDTH 6 0
BBX 5 5 0 1
BITMAP
88
88
88
88
78
ENDCHAR
STARTCHAR v
ENCODING 118
SWIDTH 392 0
DWIDTH 6 0
BBX 5 5 0 1
BITMAP
88
88
50
50
20
ENDCHAR
STARTCHAR w
ENCODING 119
SWIDTH 392 0
DWIDTH 6 0
BBX 5 5 0 1
BITMAP
88
88
A8
A8
D8
ENDCHAR
STARTCHAR x
ENCODING 120
SWIDTH 392 0
DWIDTH 6 0
BBX 5 5 0 1
BITMAP
88
50
20
50
88
ENDCHAR
STARTCHAR y
ENCODING 121
SWIDTH 392 0
DWIDTH 6 0
BBX 5 7 0 -1
BITMAP
88
88
88
88
78
08
70
ENDCHAR
STARTCHAR z
ENCODING 122
SWIDTH 392 0
DWIDTH 6 0
BBX 5 5 0 1
BITMAP
F8
10
20
40
F8
ENDCHAR
STARTCHAR braceleft
ENCODING 123
SWIDTH 392 0
DWIDTH 6 0
BBX 5 11 0 -1
BITMAP
18
20
20
20
20
C0
20
20
20
20
18
ENDCHAR
STARTCHAR bar
ENCODING 124
SWIDTH 392 0
DWIDTH 6 0
BBX 1 9 2 0
BITMAP
80
80
80
80
80
80
80
80
80
ENDCHAR
STARTCHAR braceright
ENCODING 125
SWIDTH 392 0
DWIDTH 6 0
BBX 5 11 0 -1
BITMAP
C0
20
20
20
20
18
20
20
20
20
C0
ENDCHAR
STARTCHAR asciitilde
ENCODING 126
SWIDTH 392 0
DWIDTH 6 0
BBX 5 3 0 5
BITMAP
48
A8
90
ENDCHAR
STARTCHAR uni00A0
ENCODING 160
SWIDTH 392 0
DWIDTH 6 0
BBX 1 1 5 -2
BITMAP
00
ENDCHAR
STARTCHAR exclamdown
ENCODING 161
SWIDTH 392 0
DWIDTH 6 0
BBX 1 8 2 -1
BITMAP
80
00
00
80
80
80
80
80
ENDCHAR
STARTCHAR cent
ENCODING 162
SWIDTH 392 0
DWIDTH 6 0
BBX 4 9 0 0
BITMAP
20
20
70
80
80
80
70
20
20
ENDCHAR
STARTCHAR sterling
ENCODING 163
SWIDTH 392 0
DWIDTH 6 0
BBX 5 7 0 1
BITMAP
30
40
40
F0
40
40
F8
ENDCHAR
STARTCHAR currency
ENCODING 164
SWIDTH 392 0
DWIDTH 6 0
BBX 5 5 0 2
BITMAP
88
70
50
70
88
ENDCHAR
STARTCHAR yen
ENCODING 165
SWIDTH 392 0
DWIDTH 6 0
BBX 5 7 0 1
BITMAP
88
50
20
F8
20
F8
20
ENDCHAR
STARTCHAR brokenbar
ENCODING 166
SWIDTH 392 0
DWIDTH 6 0
BBX 1 9 2 0
BITMAP
80
80
80
80
00
80
80
80
80
ENDCHAR
STARTCHAR section
ENCODING 167
SWIDTH 392 0
DWIDTH 6 0
BBX 1 1 5 -2
BITMAP
00
ENDCHAR
STARTCHAR dieresis
ENCODING 168
SWIDTH 392 0
DWIDTH 6 0
BBX 3 1 1 7
BITMAP
A0
ENDCHAR
STARTCHAR copyright
ENCODING 169
SWIDTH 392 0
DWIDTH 6 0
BBX 6 7 0 1
BITMAP
78
84
94
A4
94
84
78
ENDCHAR
STARTCHAR ordfeminine
ENCODING 170
SWIDTH 392 0
DWIDTH 6 0
BBX 1 1 5 -2
BITMAP
00
ENDCHAR
STARTCHAR guillemotleft
ENCODING 171
SWIDTH 392 0
DWIDTH 6 0
BBX 5 5 0 1
BITMAP
28
50
A0
50
28
ENDCHAR
STARTCHAR logicalnot
ENCODING 172
SWIDTH 392 0
DWIDTH 6 0
BBX 1 1 5 -2
BITMAP
00
ENDCHAR
STARTCHAR uni00AD
ENCODING 173
SWIDTH 392 0
DWIDTH 6 0
BBX 5 1 0 4
BITMAP
F8
ENDCHAR
STARTCHAR registered
ENCODING 174
SWIDTH 392 0
DWIDTH 6 0
BBX 1 1 5 -2
BITMAP
00
ENDCHAR
STARTCHAR macron
ENCODING 175
SWIDTH 392 0
DWIDTH 6 0
BBX 1 1 5 -2
BITMAP
00
ENDCHAR
STARTCHAR degree
ENCODING 176
SWIDTH 392 0
DWIDTH 6 0
BBX 4 4 0 4
BITMAP
60
90
90
60
ENDCHAR
STARTCHAR plusminus
ENCODING 177
SWIDTH 392 0
DWIDTH 6 0
BBX 1 1 5 -2
BITMAP
00
ENDCHAR
STARTCHAR uni00B2
ENCODING 178
SWIDTH 392 0
DWIDTH 6 0
BBX 1 1 5 -2
BITMAP
00
ENDCHAR
STARTCHAR uni00B3
ENCODING 179
SWIDTH 392 0
DWIDTH 6 0
BBX 1 1 5 -2
BITMAP
00
ENDCHAR
STARTCHAR acute
ENCODING 180
SWIDTH 392 0
DWIDTH 6 0
BBX 2 2 2 7
BITMAP
40
80
ENDCHAR
STARTCHAR uni00B5
ENCODING 181
SWIDTH 392 0
DWIDTH 6 0
BBX 1 1 5 -2
BITMAP
00
ENDCHAR
STARTCHAR paragraph
ENCODING 182
SWIDTH 392 0
DWIDTH 6 0
BBX 1 1 5 -2
BITMAP
00
ENDCHAR
STARTCHAR periodcentered
ENCODING 183
SWIDTH 392 0
DWIDTH 6 0
BBX 1 1 5 -2
BITMAP
00
ENDCHAR
STARTCHAR cedilla
ENCODING 184
SWIDTH 392 0
DWIDTH 6 0
BBX 3 2 0 -1
BITMAP
20
C0
ENDCHAR
STARTCHAR uni00B9
ENCODING 185
SWIDTH 392 0
DWIDTH 6 0
BBX 1 1 5 -2
BITMAP
00
ENDCHAR
STARTCHAR ordmasculine
ENCODING 186
SWIDTH 392 0
DWIDTH 6 0
BBX 1 1 5 -2
BITMAP
00
ENDCHAR
STARTCHAR guillemotright
ENCODING 187
SWIDTH 392 0
DWIDTH 6 0
BBX 5 5 0 1
BITMAP
A0
50
28
50
A0
ENDCHAR
STARTCHAR onequarter
ENCODING 188
SWIDTH 392 0
DWIDTH 6 0
BBX 1 1 5 -2
BITMAP
00
ENDCHAR
STARTCHAR onehalf
ENCODING 189
SWIDTH 392 0
DWIDTH 6 0
BBX 1 1 5 -2
BITMAP
00
ENDCHAR
STARTCHAR threequarters
ENCODING 190
SWIDTH 392 0
DWIDTH 6 0
BBX 1 1 5 -2
BITMAP
00
ENDCHAR
STARTCHAR questiondown
ENCODING 191
SWIDTH 392 0
DWIDTH 6 0
BBX 5 8 0 -1
BITMAP
20
00
00
20
40
80
88
70
ENDCHAR
STARTCHAR Agrave
ENCODING 192
SWIDTH 392 0
DWIDTH 6 0
BBX 5 9 0 1
BITMAP
40
20
00
20
20
50
70
88
88
ENDCHAR
STARTCHAR Aacute
ENCODING 193
SWIDTH 392 0
DWIDTH 6 0
BBX 5 9 0 1
BITMAP
10
20
00
20
20
50
70
88
88
ENDCHAR
STARTCHAR Acircumflex
ENCODING 194
SWIDTH 392 0
DWIDTH 6 0
BBX 5 9 0 1
BITMAP
20
50
00
20
20
50
70
88
88
ENDCHAR
STARTCHAR Atilde
ENCODING 195
SWIDTH 392 0
DWIDTH 6 0
BBX 5 9 0 1
BITMAP
68
B0
00
20
20
50
70
88
88
ENDCHAR
STARTCHAR Adieresis
ENCODING 196
SWIDTH 392 0
DWIDTH 6 0
BBX 5 9 0 1
BITMAP
50
00
20
20
50
50
70
88
88
ENDCHAR
STARTCHAR Aring
ENCODING 197
SWIDTH 392 0
DWIDTH 6 0
BBX 5 9 0 1
BITMAP
20
50
50
20
20
50
70
88
88
ENDCHAR
STARTCHAR AE
ENCODING 198
SWIDTH 392 0
DWIDTH 6 0
BBX 5 7 0 1
BITMAP
38
30
50
58
70
90
98
ENDCHAR
STARTCHAR Ccedilla
ENCODING 199
SWIDTH 392 0
DWIDTH 6 0
BBX 5 9 0 -1
BITMAP
38
40
80
80
80
40
38
10
60
ENDCHAR
STARTCHAR Egrave
ENCODING 200
SWIDTH 392 0
DWIDTH 6 0
BBX 5 9 0 1
BITMAP
40
20
00
F8
80
F0
80
80
F8
ENDCHAR
STARTCHAR Eacute
ENCODING 201
SWIDTH 392 0
DWIDTH 6 0
BBX 5 9 0 1
BITMAP
10
20
00
F8
80
F0
80
80
F8
ENDCHAR
STARTCHAR Ecircumflex
ENCODING 202
SWIDTH 392 0
DWIDTH 6 0
BBX 5 9 0 1
BITMAP
20
50
00
F8
80
F0
80
80
F8
ENDCHAR
STARTCHAR Edieresis
ENCODING 203
SWIDTH 392 0
DWIDTH 6 0
BBX 5 9 0 1
BITMAP
50
00
F8
80
80
F0
80
80
F8
ENDCHAR
STARTCHAR Igrave
ENCODING 204
SWIDTH 392 0
DWIDTH 6 0
BBX 3 9 1 1
BITMAP
80
40
00
E0
40
40
40
40
E0
ENDCHAR
STARTCHAR Iacute
ENCODING 205
SWIDTH 392 0
DWIDTH 6 0
BBX 3 9 1 1
BITMAP
20
40
00
E0
40
40
40
40
E0
ENDCHAR
STARTCHAR Icircumflex
ENCODING 206
SWIDTH 392 0
DWIDTH 6 0
BBX 3 9 1 1
BITMAP
40
A0
00
E0
40
40
40
40
E0
ENDCHAR
STARTCHAR Idieresis
ENCODING 207
SWIDTH 392 0
DWIDTH 6 0
BBX 3 9 1 1
BITMAP
A0
00
E0
40
40
40
40
40
E0
ENDCHAR
STARTCHAR Eth
ENCODING 208
SWIDTH 392 0
DWIDTH 6 0
BBX 5 7 0 1
BITMAP
F0
48
48
E8
48
50
E0
ENDCHAR
STARTCHAR Ntilde
ENCODING 209
SWIDTH 392 0
DWIDTH 6 0
BBX 5 9 0 1
BITMAP
68
B0
00
88
C8
A8
98
88
88
ENDCHAR
STARTCHAR Ograve
ENCODING 210
SWIDTH 392 0
DWIDTH 6 0
BBX 5 9 0 1
BITMAP
40
20
00
70
88
88
88
88
70
ENDCHAR
STARTCHAR Oacute
ENCODING 211
SWIDTH 392 0
DWIDTH 6 0
BBX 5 9 0 1
BITMAP
10
20
00
70
88
88
88
88
70
ENDCHAR
STARTCHAR Ocircumflex
ENCODING 212
SWIDTH 392 0
DWIDTH 6 0
BBX 5 9 0 1
BITMAP
20
50
00
70
88
88
88
88
70
ENDCHAR
STARTCHAR Otilde
ENCODING 213
SWIDTH 392 0
DWIDTH 6 0
BBX 5 9 0 1
BITMAP
68
B0
00
70
88
88
88
88
70
ENDCHAR
STARTCHAR Odieresis
ENCODING 214
SWIDTH 392 0
DWIDTH 6 0
BBX 5 9 0 1
BITMAP
50
00
70
88
88
88
88
88
70
ENDCHAR
STARTCHAR multiply
ENCODING 215
SWIDTH 392 0
DWIDTH 6 0
BBX 4 4 1 2
BITMAP
90
60
60
90
ENDCHAR
STARTCHAR Oslash
ENCODING 216
SWIDTH 392 0
DWIDTH 6 0
BBX 5 9 0 0
BITMAP
08
70
98
98
A8
C8
C8
70
80
ENDCHAR
STARTCHAR Ugrave
ENCODING 217
SWIDTH 392 0
DWIDTH 6 0
BBX 5 9 0 1
BITMAP
40
20
88
88
88
88
88
88
70
ENDCHAR
STARTCHAR Uacute
ENCODING 218
SWIDTH 392 0
DWIDTH 6 0
BBX 5 9 0 1
BITMAP
10
20
88
88
88
88
88
88
70
ENDCHAR
STARTCHAR Ucircumflex
ENCODING 219
SWIDTH 392 0
DWIDTH 6 0
BBX 5 9 0 1
BITMAP
20
50
00
88
88
88
88
88
70
ENDCHAR
STARTCHAR Udieresis
ENCODING 220
SWIDTH 392 0
DWIDTH 6 0
BBX 5 9 0 1
BITMAP
50
00
88
88
88
88
88
88
70
ENDCHAR
STARTCHAR Yacute
ENCODING 221
SWIDTH 392 0
DWIDTH 6 0
BBX 5 9 0 1
BITMAP
10
20
00
88
88
50
20
20
20
ENDCHAR
STARTCHAR Thorn
ENCODING 222
SWIDTH 392 0
DWIDTH 6 0
BBX 5 7 0 1
BITMAP
80
F0
88
88
88
F0
80
ENDCHAR
STARTCHAR germandbls
ENCODING 223
SWIDTH 392 0
DWIDTH 6 0
BBX 5 7 0 1
BITMAP
70
88
90
B0
88
88
B0
ENDCHAR
STARTCHAR agrave
ENCODING 224
SWIDTH 392 0
DWIDTH 6 0
BBX 5 8 0 1
BITMAP
40
20
00
70
08
78
88
78
ENDCHAR
STARTCHAR aacute
ENCODING 225
SWIDTH 392 0
DWIDTH 6 0
BBX 5 8 0 1
BITMAP
10
20
00
70
08
78
88
78
ENDCHAR
STARTCHAR acircumflex
ENCODING 226
SWIDTH 392 0
DWIDTH 6 0
BBX 5 9 0 1
BITMAP
20
50
00
00
70
08
78
88
78
ENDCHAR
STARTCHAR atilde
ENCODING 227
SWIDTH 392 0
DWIDTH 6 0
BBX 5 9 0 1
BITMAP
68
B0
00
00
70
08
78
88
78
ENDCHAR
STARTCHAR adieresis
ENCODING 228
SWIDTH 392 0
DWIDTH 6 0
BBX 5 7 0 1
BITMAP
50
00
70
08
78
88
78
ENDCHAR
STARTCHAR aring
ENCODING 229
SWIDTH 392 0
DWIDTH 6 0
BBX 5 9 0 1
BITMAP
30
48
30
00
70
08
78
88
78
ENDCHAR
STARTCHAR ae
ENCODING 230
SWIDTH 392 0
DWIDTH 6 0
BBX 5 5 0 1
BITMAP
D8
28
78
A0
D8
ENDCHAR
STARTCHAR ccedilla
ENCODING 231
SWIDTH 392 0
DWIDTH 6 0
BBX 4 7 0 -1
BITMAP
70
80
80
80
70
20
C0
ENDCHAR
STARTCHAR egrave
ENCODING 232
SWIDTH 392 0
DWIDTH 6 0
BBX 5 8 0 1
BITMAP
40
20
00
70
88
F8
80
78
ENDCHAR
STARTCHAR eacute
ENCODING 233
SWIDTH 392 0
DWIDTH 6 0
BBX 5 8 0 1
BITMAP
10
20
00
70
88
F8
80
78
ENDCHAR
STARTCHAR ecircumflex
ENCODING 234
SWIDTH 392 0
DWIDTH 6 0
BBX 5 9 0 1
BITMAP
20
50
00
00
70
88
F8
80
78
ENDCHAR
STARTCHAR edieresis
ENCODING 235
SWIDTH 392 0
DWIDTH 6 0
BBX 5 7 0 1
BITMAP
50
00
70
88
F8
80
78
ENDCHAR
STARTCHAR igrave
ENCODING 236
SWIDTH 392 0
DWIDTH 6 0
BBX 3 8 1 1
BITMAP
80
40
00
C0
40
40
40
E0
ENDCHAR
STARTCHAR iacute
ENCODING 237
SWIDTH 392 0
DWIDTH 6 0
BBX 3 8 1 1
BITMAP
20
40
00
C0
40
40
40
E0
ENDCHAR
STARTCHAR icircumflex
ENCODING 238
SWIDTH 392 0
DWIDTH 6 0
BBX 3 9 1 1
BITMAP
40
A0
00
00
C0
40
40
40
E0
ENDCHAR
STARTCHAR idieresis
ENCODING 239
SWIDTH 392 0
DWIDTH 6 0
BBX 3 7 1 1
BITMAP
A0
00
C0
40
40
40
E0
ENDCHAR
STARTCHAR eth
ENCODING 240
SWIDTH 392 0
DWIDTH 6 0
BBX 5 9 0 1
BITMAP
20
38
70
10
78
88
88
88
70
ENDCHAR
STARTCHAR ntilde
ENCODING 241
SWIDTH 392 0
DWIDTH 6 0
BBX 5 9 0 1
BITMAP
68
B0
00
00
F0
88
88
88
88
ENDCHAR
STARTCHAR ograve
ENCODING 242
SWIDTH 392 0
DWIDTH 6 0
BBX 5 8 0 1
BITMAP
40
20
00
70
88
88
88
70
ENDCHAR
STARTCHAR oacute
ENCODING 243
SWIDTH 392 0
DWIDTH 6 0
BBX 5 8 0 1
BITMAP
10
20
00
70
88
88
88
70
ENDCHAR
STARTCHAR ocircumflex
ENCODING 244
SWIDTH 392 0
DWIDTH 6 0
BBX 5 9 0 1
BITMAP
20
50
00
00
70
88
88
88
70
ENDCHAR
STARTCHAR otilde
ENCODING 245
SWIDTH 392 0
DWIDTH 6 0
BBX 5 9 0 1
BITMAP
68
B0
00
00
70
88
88
88
70
ENDCHAR
STARTCHAR odieresis
ENCODING 246
SWIDTH 392 0
DWIDTH 6 0
BBX 5 7 0 1
BITMAP
50
00
70
88
88
88
70
ENDCHAR
STARTCHAR divide
ENCODING 247
SWIDTH 392 0
DWIDTH 6 0
BBX 5 5 0 2
BITMAP
20
00
F8
00
20
ENDCHAR
STARTCHAR oslash
ENCODING 248
SWIDTH 392 0
DWIDTH 6 0
BBX 5 7 0 0
BITMAP
08
70
98
A8
C8
70
80
ENDCHAR
STARTCHAR ugrave
ENCODING 249
SWIDTH 392 0
DWIDTH 6 0
BBX 5 8 0 1
BITMAP
40
20
00
88
88
88
88
78
ENDCHAR
STARTCHAR uacute
ENCODING 250
SWIDTH 392 0
DWIDTH 6 0
BBX 5 8 0 1
BITMAP
10
20
00
88
88
88
88
78
ENDCHAR
STARTCHAR ucircumflex
ENCODING 251
SWIDTH 392 0
DWIDTH 6 0
BBX 5 9 0 1
BITMAP
20
50
00
00
88
88
88
88
78
ENDCHAR
STARTCHAR udieresis
ENCODING 252
SWIDTH 392 0
DWIDTH 6 0
BBX 5 7 0 1
BITMAP
50
00
88
88
88
88
78
ENDCHAR
STARTCHAR yacute
ENCODING 253
SWIDTH 392 0
DWIDTH 6 0
BBX 5 10 0 -1
BITMAP
10
20
00
88
88
88
88
78
08
70
ENDCHAR
STARTCHAR thorn
ENCODING 254
SWIDTH 392 0
DWIDTH 6 0
BBX 5 9 0 -1
BITMAP
80
80
F0
88
88
88
F0
80
80
ENDCHAR
STARTCHAR ydieresis
ENCODING 255
SWIDTH 392 0
DWIDTH 6 0
BBX 5 9 0 -1
BITMAP
50
00
88
88
88
88
78
08
70
ENDCHAR
STARTCHAR pi
ENCODING 960
SWIDTH 392 0
DWIDTH 6 0
BBX 1 1 5 -2
BITMAP
00
ENDCHAR
STARTCHAR uni09E8
ENCODING 2536
SWIDTH 392 0
DWIDTH 6 0
BBX 1 1 5 -2
BITMAP
00
ENDCHAR
STARTCHAR uni09E9
ENCODING 2537
SWIDTH 392 0
DWIDTH 6 0
BBX 1 1 5 -2
BITMAP
00
ENDCHAR
STARTCHAR angle
ENCODING 8736
SWIDTH 583 0
DWIDTH 7 0
BBX 6 6 0 1
BITMAP
08
10
20
40
80
FC
ENDCHAR
STARTCHAR notequal
ENCODING 8800
SWIDTH 392 0
DWIDTH 6 0
BBX 1 1 5 -2
BITMAP
00
ENDCHAR
STARTCHAR lessequal
ENCODING 8804
SWIDTH 392 0
DWIDTH 6 0
BBX 1 1 5 -2
BITMAP
00
ENDCHAR
STARTCHAR greaterequal
ENCODING 8805
SWIDTH 392 0
DWIDTH 6 0
BBX 1 1 5 -2
BITMAP
00
ENDCHAR
STARTCHAR uni23BA
ENCODING 9146
SWIDTH 392 0
DWIDTH 6 0
BBX 1 1 5 -2
BITMAP
00
ENDCHAR
STARTCHAR uni23BB
ENCODING 9147
SWIDTH 392 0
DWIDTH 6 0
BBX 1 1 5 -2
BITMAP
00
ENDCHAR
STARTCHAR uni23BC
ENCODING 9148
SWIDTH 392 0
DWIDTH 6 0
BBX 1 1 5 -2
BITMAP
00
ENDCHAR
STARTCHAR uni23BD
ENCODING 9149
SWIDTH 392 0
DWIDTH 6 0
BBX 1 1 5 -2
BITMAP
00
ENDCHAR
STARTCHAR uni23F0
ENCODING 9200
SWIDTH 500 0
DWIDTH 6 0
BBX 1 1 10 0
BITMAP
00
ENDCHAR
STARTCHAR uni2409
ENCODING 9225
SWIDTH 392 0
DWIDTH 6 0
BBX 1 1 5 -2
BITMAP
00
ENDCHAR
STARTCHAR uni240A
ENCODING 9226
SWIDTH 392 0
DWIDTH 6 0
BBX 1 1 5 -2
BITMAP
00
ENDCHAR
STARTCHAR uni240C
ENCODING 9228
SWIDTH 392 0
DWIDTH 6 0
BBX 1 1 5 -2
BITMAP
00
ENDCHAR
STARTCHAR uni240D
ENCODING 9229
SWIDTH 392 0
DWIDTH 6 0
BBX 1 1 5 -2
BITMAP
00
ENDCHAR
STARTCHAR SF100000
ENCODING 9472
SWIDTH 392 0
DWIDTH 6 0
BBX 6 1 0 4
BITMAP
FC
ENDCHAR
STARTCHAR SF110000
ENCODING 9474
SWIDTH 392 0
DWIDTH 6 0
BBX 1 12 2 -2
BITMAP
80
80
80
80
80
80
80
80
80
80
80
80
ENDCHAR
STARTCHAR SF010000
ENCODING 9484
SWIDTH 392 0
DWIDTH 6 0
BBX 4 7 2 -2
BITMAP
F0
80
80
80
80
80
80
ENDCHAR
STARTCHAR SF030000
ENCODING 9488
SWIDTH 392 0
DWIDTH 6 0
BBX 3 7 0 -2
BITMAP
E0
20
20
20
20
20
20
ENDCHAR
STARTCHAR SF020000
ENCODING 9492
SWIDTH 392 0
DWIDTH 6 0
BBX 4 6 2 4
BITMAP
80
80
80
80
80
F0
ENDCHAR
STARTCHAR SF040000
ENCODING 9496
SWIDTH 392 0
DWIDTH 6 0
BBX 3 6 0 4
BITMAP
20
20
20
20
20
E0
ENDCHAR
STARTCHAR SF080000
ENCODING 9500
SWIDTH 392 0
DWIDTH 6 0
BBX 4 12 2 -2
BITMAP
80
80
80
80
80
F0
80
80
80
80
80
80
ENDCHAR
STARTCHAR SF090000
ENCODING 9508
SWIDTH 392 0
DWIDTH 6 0
BBX 3 12 0 -2
BITMAP
20
20
20
20
20
E0
20
20
20
20
20
20
ENDCHAR
STARTCHAR SF060000
ENCODING 9516
SWIDTH 392 0
DWIDTH 6 0
BBX 6 7 0 -2
BITMAP
FC
20
20
20
20
20
20
ENDCHAR
STARTCHAR SF070000
ENCODING 9524
SWIDTH 392 0
DWIDTH 6 0
BBX 6 6 0 4
BITMAP
20
20
20
20
20
FC
ENDCHAR
STARTCHAR SF050000
ENCODING 9532
SWIDTH 392 0
DWIDTH 6 0
BBX 6 12 0 -2
BITMAP
20
20
20
20
20
FC
20
20
20
20
20
20
ENDCHAR
STARTCHAR shade
ENCODING 9618
SWIDTH 392 0
DWIDTH 6 0
BBX 6 12 0 -2
BITMAP
A8
54
A8
54
A8
54
A8
54
A8
54
A8
54
ENDCHAR
STARTCHAR uni25A8
ENCODING 9640
SWIDTH 500 0
DWIDTH 6 0
BBX 6 6 0 1
BITMAP
FC
8C
94
A4
C4
FC
ENDCHAR
STARTCHAR H18543
ENCODING 9642
SWIDTH 500 0
DWIDTH 6 0
BBX 6 6 0 0
BITMAP
FC
FC
FC
FC
FC
FC
ENDCHAR
STARTCHAR uni25C6
ENCODING 9670
SWIDTH 392 0
DWIDTH 6 0
BBX 1 1 5 -2
BITMAP
00
ENDCHAR
STARTCHAR uni25C9
ENCODING 9673
SWIDTH 1000 0
DWIDTH 6 0
BBX 6 6 0 1
BITMAP
30
48
B4
B4
48
30
ENDCHAR
STARTCHAR uni25E2
ENCODING 9698
SWIDTH 500 0
DWIDTH 6 0
BBX 6 6 0 0
BITMAP
04
0C
1C
3C
7C
FC
ENDCHAR
STARTCHAR uni25E3
ENCODING 9699
SWIDTH 500 0
DWIDTH 6 0
BBX 6 6 0 0
BITMAP
80
C0
E0
F0
F8
FC
ENDCHAR
STARTCHAR uni2708
ENCODING 9992
SWIDTH 500 0
DWIDTH 6 0
BBX 6 10 0 -1
BITMAP
0C
14
24
54
54
54
68
70
40
80
ENDCHAR
STARTCHAR uni2728
ENCODING 10024
SWIDTH 500 0
DWIDTH 6 0
BBX 6 8 0 0
BITMAP
40
E0
48
1C
08
40
E0
40
ENDCHAR
STARTCHAR uni276D
ENCODING 10093
SWIDTH 500 0
DWIDTH 6 0
BBX 5 7 0 1
BITMAP
C0
60
30
18
30
60
C0
ENDCHAR
STARTCHAR uni27F7
ENCODING 10231
SWIDTH 500 0
DWIDTH 6 0
BBX 6 3 0 2
BITMAP
48
FC
48
ENDCHAR
STARTCHAR uni2B06
ENCODING 11014
SWIDTH 1000 0
DWIDTH 6 0
BBX 6 8 0 0
BITMAP
30
78
FC
30
30
30
30
30
ENDCHAR
STARTCHAR uni2B65
ENCODING 11109
SWIDTH 500 0
DWIDTH 6 0
BBX 3 6 1 1
BITMAP
40
E0
40
40
E0
40
ENDCHAR
STARTCHAR u9AAA0
ENCODING 633504
SWIDTH 83 0
DWIDTH 1 0
BBX 1 1 10 0
BITMAP
00
ENDCHAR
STARTCHAR u9AAA1
ENCODING 633505
SWIDTH 166 0
DWIDTH 2 0
BBX 1 1 12 0
BITMAP
00
ENDCHAR
STARTCHAR u9AAA2
ENCODING 633506
SWIDTH 250 0
DWIDTH 3 0
BBX 1 1 14 0
BITMAP
00
ENDCHAR
STARTCHAR u9AAA3
ENCODING 633507
SWIDTH 333 0
DWIDTH 4 0
BBX 1 1 14 0
BITMAP
00
ENDCHAR
STARTCHAR u9AAA4
ENCODING 633508
SWIDTH 416 0
DWIDTH 5 0
BBX 1 1 16 0
BITMAP
00
ENDCHAR
STARTCHAR u9AAA5
ENCODING 633509
SWIDTH 500 0
DWIDTH 6 0
BBX 1 1 11 0
BITMAP
00
ENDCHAR
STARTCHAR u9AAA6
ENCODING 633510
SWIDTH 583 0
DWIDTH 7 0
BBX 1 1 9 -1
BITMAP
00
ENDCHAR
STARTCHAR u9AAA7
ENCODING 633511
SWIDTH 666 0
DWIDTH 8 0
BBX 1 1 13 0
BITMAP
00
ENDCHAR
STARTCHAR u9AAA8
ENCODING 633512
SWIDTH 750 0
DWIDTH 9 0
BBX 1 1 14 0
BITMAP
00
ENDCHAR
STARTCHAR u9AAA9
ENCODING 633513
SWIDTH 833 0
DWIDTH 10 0
BBX 1 1 11 0
BITMAP
00
ENDCHAR
STARTCHAR u9AAAA
ENCODING 633514
SWIDTH 1000 0
DWIDTH 10 0
BBX 10 10 0 0
BITMAP
FFC0
BFC0
DFC0
BFC0
FFC0
FFC0
FFC0
FFC0
FFC0
FFC0
ENDCHAR
STARTCHAR u9AAAB
ENCODING 633515
SWIDTH 1000 0
DWIDTH 10 0
BBX 10 10 0 0
BITMAP
1E00
2B00
7380
F4C0
B3C0
A3C0
B9C0
7980
3100
1E00
ENDCHAR
STARTCHAR u9AAAC
ENCODING 633516
SWIDTH 833 0
DWIDTH 10 0
BBX 10 10 0 0
BITMAP
FC00
87C0
F040
FFC0
FFC0
FFC0
FFC0
FFC0
FFC0
FFC0
ENDCHAR
STARTCHAR u9AAAD
ENCODING 633517
SWIDTH 833 0
DWIDTH 10 0
BBX 10 10 0 0
BITMAP
FEC0
8140
8280
8540
D640
A840
8040
8040
8040
FFC0
ENDCHAR
STARTCHAR u9AAAE
ENCODING 633518
SWIDTH 833 0
DWIDTH 10 0
BBX 10 10 0 0
BITMAP
FFC0
8040
B340
B940
9C40
8E40
A740
B340
8040
FFC0
ENDCHAR
STARTCHAR u9AAAF
ENCODING 633519
SWIDTH 1000 0
DWIDTH 10 0
BBX 10 10 0 0
BITMAP
3840
5440
CA80
A280
8D00
7900
0600
0E00
0E00
0800
ENDCHAR
STARTCHAR u9AAB0
ENCODING 633520
SWIDTH 166 0
DWIDTH 2 0
BBX 1 12 0 -2
BITMAP
80
80
80
80
80
80
80
80
80
80
80
80
ENDCHAR
STARTCHAR u9AAB1
ENCODING 633521
SWIDTH 1000 0
DWIDTH 6 0
BBX 6 7 0 1
BITMAP
FC
E0
98
84
80
80
FC
ENDCHAR
STARTCHAR u9AAB2
ENCODING 633522
SWIDTH 1000 0
DWIDTH 6 0
BBX 6 7 0 1
BITMAP
FC
1C
64
84
04
04
FC
ENDCHAR
STARTCHAR u9AAB3
ENCODING 633523
SWIDTH 583 0
DWIDTH 7 0
BBX 7 7 0 1
BITMAP
28
7C
C6
44
C6
7C
28
ENDCHAR
STARTCHAR u9AAB4
ENCODING 633524
SWIDTH 583 0
DWIDTH 7 0
BBX 7 7 0 1
BITMAP
AA
FE
82
82
82
FE
AA
ENDCHAR
STARTCHAR u9AAB5
ENCODING 633525
SWIDTH 583 0
DWIDTH 7 0
BBX 7 7 0 1
BITMAP
04
22
EA
EA
EA
22
04
ENDCHAR
STARTCHAR u9AAB6
ENCODING 633526
SWIDTH 750 0
DWIDTH 9 0
BBX 3 7 0 1
BITMAP
60
40
60
40
E0
A0
E0
ENDCHAR
STARTCHAR u9AAB7
ENCODING 633527
SWIDTH 666 0
DWIDTH 8 0
BBX 8 7 0 1
BITMAP
03
03
1B
1B
DB
DB
DB
ENDCHAR
STARTCHAR u9AAB8
ENCODING 633528
SWIDTH 583 0
DWIDTH 7 0
BBX 6 8 0 1
BITMAP
30
FC
84
B4
B4
B4
84
FC
ENDCHAR
STARTCHAR u9AAB9
ENCODING 633529
SWIDTH 1000 0
DWIDTH 8 0
BBX 8 8 0 0
BITMAP
30
4C
82
81
7E
18
0C
10
ENDCHAR
STARTCHAR u9AB0F
ENCODING 633615
SWIDTH 1000 0
DWIDTH 10 0
BBX 10 10 0 0
BITMAP
0040
4040
60C0
5F40
4940
DB40
C080
3300
EC00
C000
ENDCHAR
STARTCHAR u9AB20
ENCODING 633632
SWIDTH 1000 0
DWIDTH 8 0
BBX 5 5 0 2
BITMAP
A8
70
F8
70
A8
ENDCHAR
STARTCHAR u9AB21
ENCODING 633633
SWIDTH 666 0
DWIDTH 8 0
BBX 8 7 0 1
BITMAP
15
0E
3F
4E
83
81
7E
ENDCHAR
STARTCHAR u9AB22
ENCODING 633634
SWIDTH 666 0
DWIDTH 8 0
BBX 8 5 0 2
BITMAP
30
4C
82
81
7E
ENDCHAR
STARTCHAR u9AB23
ENCODING 633635
SWIDTH 1000 0
DWIDTH 8 0
BBX 7 9 0 0
BITMAP
20
58
84
82
7C
44
10
44
10
ENDCHAR
STARTCHAR u9AB24
ENCODING 633636
SWIDTH 1000 0
DWIDTH 8 0
BBX 8 8 0 1
BITMAP
30
4C
82
81
7E
18
0C
10
ENDCHAR
STARTCHAR u9AB25
ENCODING 633637
SWIDTH 666 0
DWIDTH 8 0
BBX 8 8 0 0
BITMAP
33
CC
00
33
CC
00
33
CC
ENDCHAR
STARTCHAR u9AB26
ENCODING 633638
SWIDTH 1000 0
DWIDTH 8 0
BBX 6 8 0 0
BITMAP
40
A0
40
08
14
48
A0
40
ENDCHAR
ENDFONT
